<svg
   version="1.1"
   id="svg1"
   width="80"
   height="40"
   viewBox="0 0 1920 900"
   xmlns="http://www.w3.org/2000/svg"
   xmlns:svg="http://www.w3.org/2000/svg">
  <defs
     id="defs1" />
  <g
     id="g1">
    <path
       style="fill:#000000"
       d="m 458.41409,627.53275 c -7.55598,-1.37211 -10.29311,-2.47712 -12.38785,-5.00113 -1.09006,-1.31345 -1.00627,-2.24949 0.50045,-5.59082 1.78624,-3.96117 1.78142,-4.04845 -0.37158,-6.72702 -1.19972,-1.49258 -2.90106,-4.10771 -3.78076,-5.81141 -1.55177,-3.00528 -1.44846,-3.55679 3.46541,-18.5 2.78568,-8.4713 6.22579,-19.00237 7.64469,-23.40237 4.768,-14.78557 7.26738,-21.89763 15.41045,-43.85091 4.45781,-12.018 8.1051,-22.15566 8.1051,-22.52812 0,-0.37247 -7.7625,-0.0241 -17.25,0.77424 -21.12143,1.77722 -34.82751,0.72064 -51.07644,-3.93736 -12.66013,-3.62922 -14.70972,-3.42035 -21.40622,2.18146 -6.37492,5.33281 -20.32464,11.95139 -33.70147,15.98999 -8.87281,2.67879 -11.67821,4.00895 -14.88104,7.05573 -3.39519,3.22977 -3.86193,4.17946 -3.33904,6.79394 0.90457,4.52284 4.07737,8.24105 13.20379,15.47359 9.53712,7.558 18.19558,16.6839 19.04667,20.07492 0.32616,1.29952 0.10043,4.6596 -0.50162,7.46686 -0.60204,2.80726 -1.09463,6.86629 -1.09463,9.02008 0,2.88948 -0.7557,4.77704 -2.88291,7.20078 -1.5856,1.80664 -3.62776,5.06833 -4.53814,7.2482 -3.11593,7.46101 -6.59347,9.38801 -10.04975,5.56886 -2.29616,-2.53722 -3.47001,-13.41159 -2.07302,-19.20413 0.98226,-4.07287 1.27973,-4.35794 5.04382,-4.83354 l 4,-0.50541 -2.75,-1.8596 c -2.15603,-1.45795 -2.74933,-2.64471 -2.74689,-5.49459 0.003,-3.32046 -1.01386,-4.63387 -11.75,-15.1789 -6.46421,-6.34916 -16.31682,-14.99115 -21.89468,-19.20443 -5.57787,-4.21329 -11.06446,-8.83378 -12.19243,-10.26776 l -2.05086,-2.60724 -1.61414,3.12141 c -2.27766,4.40451 -7.52643,10.01977 -18.501,19.79283 -14.04754,12.50959 -19.07057,20.29385 -24.93477,38.64177 -5.62465,17.59839 -5.06841,27.37844 1.64986,29.00883 4.90816,1.19111 11.28491,4.69067 11.28491,6.19316 0,0.80094 -1.10455,2.56079 -2.45455,3.91079 -1.98941,1.98942 -3.45802,2.45384 -7.75,2.45081 -6.4767,-0.005 -10.71514,-2.35714 -14.54375,-8.0726 -1.51344,-2.25929 -4.2142,-5.80841 -6.0017,-7.88693 -4.15746,-4.83433 -4.12188,-7.65175 0.19416,-15.37425 3.82369,-6.84154 13.74159,-35.66094 16.05177,-46.64313 1.8667,-8.87398 4.10218,-13.26289 10.73815,-21.08221 C 276.76987,509.52258 282.05938,502.36795 285.40971,496 289.07317,489.03691 292,477.13865 292,469.20894 c 0,-5.40212 -1.86789,-16.24404 -3.02183,-17.53982 -0.40696,-0.45699 -1.66204,1.89964 -2.78907,5.23694 -1.34872,3.99379 -4.02116,8.46493 -7.81856,13.08088 -7.66748,9.32025 -8.34109,9.40258 -2.15232,0.26306 1.58282,-2.3375 2.61541,-4.25 2.29464,-4.25 -0.32078,0 -0.0669,-0.96478 0.56418,-2.14395 0.63107,-1.17917 2.17761,-5.79167 3.43676,-10.25 1.25915,-4.45833 3.47317,-11.20403 4.92005,-14.99045 1.44688,-3.78641 2.44069,-7.07439 2.20847,-7.30661 -0.85763,-0.85763 -12.01658,15.40352 -14.8851,21.69101 -3.01755,6.61412 -11.8296,21.26096 -12.43007,20.66048 -0.55418,-0.55418 3.34599,-14.83371 5.57472,-20.41048 1.15397,-2.8875 3.01725,-7.55514 4.14062,-10.37254 1.12336,-2.8174 1.88983,-5.5805 1.70326,-6.14022 -0.37698,-1.13093 -6.88907,12.77364 -8.55322,18.26276 -2.36475,7.80002 -6.01788,18.80421 -7.9045,23.81042 -1.98779,5.27469 -6.07081,11.74013 -6.89413,10.91681 -0.50473,-0.50473 6.16773,-19.97883 8.17609,-23.86258 0.75668,-1.46325 1.8311,-4.6189 2.38761,-7.01255 0.55651,-2.39366 1.67709,-6.50588 2.49018,-9.13829 0.81309,-2.6324 1.13572,-4.57443 0.71695,-4.31562 -0.72612,0.44877 -1.74684,2.59476 -7.59728,15.97265 -1.4121,3.22897 -2.58868,7.72897 -2.61463,10 -0.0299,2.61418 -1.14102,6.1471 -3.02851,9.62916 -1.63973,3.025 -2.7771,4.6 -2.52748,3.5 1.59301,-7.01988 1.75341,-8.71089 0.76856,-8.10222 -1.51617,0.93705 4.95955,-17.54168 9.35171,-26.68551 2.05743,-4.28325 3.50247,-8.02604 3.21119,-8.31731 -1.09557,-1.09557 -12.03121,15.50295 -14.65239,22.23996 -2.86092,7.35317 -8.52459,17.90632 -10.14866,18.91005 -0.52259,0.32298 -0.045,-1.70917 1.0613,-4.51589 1.1063,-2.80672 2.01146,-6.45881 2.01146,-8.11576 0,-1.65695 0.68498,-4.33724 1.52217,-5.95619 0.83719,-1.61896 1.95949,-4.18411 2.49398,-5.70034 0.80701,-2.28926 0.19633,-1.90883 -3.60082,2.24321 -10.44981,11.42645 -13.74636,18.32657 -15.23712,31.89329 -0.79818,7.26386 -1.54869,9.69286 -4.45581,14.42094 -3.89577,6.33602 -8.6914,10.19768 -12.62028,10.16241 -2.23517,-0.0201 -1.89939,-0.40787 2.38114,-2.75 6.54184,-3.57943 8.96521,-8.10821 10.95141,-20.46594 2.2509,-14.00466 4.13812,-18.05444 15.35192,-32.9437 8.84252,-11.74077 19.86197,-29.50177 18.90038,-30.46336 -0.95336,-0.95336 -21.28745,20.72691 -25.72833,27.43164 -2.81042,4.24309 -9.80327,17.26465 -15.53965,28.93679 -11.08754,22.5604 -14.67268,27.54014 -20.63238,28.65818 -6.01856,1.12909 -18.04274,-4.11831 -22.84413,-9.96927 -1.32269,-1.61183 -1.23486,-1.69859 1.05752,-1.04476 8.95456,2.55401 16.18675,3.6042 18.02937,2.61806 3.64062,-1.9484 1.86343,-7.91306 -4.01769,-13.48428 -3.16632,-2.99947 -3.16881,-2.99995 -14.10239,-2.73284 -9.29124,0.22699 -11.4974,-0.0295 -14.6724,-1.7058 l -3.73689,-1.97297 6.19098,-0.0442 c 3.40504,-0.0243 6.42323,-0.41998 6.70708,-0.87926 0.28385,-0.45928 -2.28529,-1.35123 -5.70921,-1.98211 -3.42391,-0.63088 -8.6921,-2.00552 -11.70707,-3.05475 -4.54834,-1.58285 -5.14122,-2.04362 -3.48178,-2.70592 1.1,-0.43902 2.45,-1.36061 3,-2.04797 0.55,-0.68737 2.35,-1.41166 4,-1.60954 2.13607,-0.25617 1.27214,-0.57593 -3,-1.11036 -6.97077,-0.87201 -8.86997,-1.70716 -9.34192,-4.10804 -0.28078,-1.42833 0.0769,-1.59143 2,-0.91208 1.28806,0.45501 4.36692,0.83596 6.84192,0.84656 6.13912,0.0263 6.38091,-2.38917 0.89897,-8.98073 -8.66645,-10.42065 -8.92532,-13.06726 -0.87934,-8.99005 2.70263,1.36953 5.60384,2.49005 6.44713,2.49005 3.17505,0 1.33185,-2.07287 -4.42911,-4.98099 -5.8109,-2.93334 -8.03765,-5.2734 -8.03765,-8.44666 0,-1.13042 1.25843,-0.59856 4.5766,1.93426 6.87381,5.24689 8.89497,4.89852 20.4234,-3.52021 3.575,-2.61067 8.975,-5.97526 12,-7.47685 5.5906,-2.77514 10,-6.17217 10,-7.70405 0,-0.46523 -4.3875,-0.60838 -9.75,-0.31811 -11.1627,0.60423 -10.85878,0.1 1.48945,-2.47112 7.18474,-1.49599 8.04105,-1.85441 4.76055,-1.99259 -3.63512,-0.15312 -3.31586,-0.33732 3.5,-2.01928 7.56398,-1.86658 17.62411,-5.71362 16.88198,-6.45575 -0.22059,-0.2206 -3.32179,0.2249 -6.89153,0.99 -9.36172,2.00649 -10.44484,1.64385 -2.99045,-1.00123 8.49017,-3.01261 6.00291,-4.26008 -5.33508,-2.67578 C 181.40955,409.29466 173,409.33401 173,407.94897 c 0,-1.8992 6.3618,-3.76106 17.01644,-4.98008 13.14124,-1.50351 15.216,-2.54042 6.3521,-3.17463 -4.23157,-0.30277 -8.40813,-1.30127 -10.87022,-2.59878 -3.6508,-1.92395 -3.77291,-2.11093 -1.40487,-2.15128 1.4264,-0.0243 5.20934,0.8558 8.40655,1.9558 6.01892,2.07081 9.65958,2.50709 10.8647,1.30197 0.38391,-0.38392 -0.32859,-1.28748 -1.58334,-2.00792 -1.97248,-1.13254 -1.4013,-1.20727 4.21864,-0.55197 13.69675,1.59708 18.7497,0.99326 28.5,-3.40572 12.00187,-5.41481 18.07155,-6.76789 30,-6.68774 9.79652,0.0658 38.0236,4.95568 42.53043,7.36767 3.39804,1.81857 8.63912,1.00625 16.27739,-2.52285 19.09705,-8.82338 36.30416,-9.553 70.19218,-2.97631 23.63093,4.58608 35.08124,4.98025 46.98185,1.61733 9.92005,-2.80326 23.72617,-9.19459 26.74629,-12.38178 1.24952,-1.31866 5.42186,-3.64089 9.27186,-5.16053 7.65682,-3.02222 13.5,-6.2967 13.5,-7.5653 0,-1.42797 -4.76874,-2.06315 -7.6806,-1.02303 l -2.8194,1.00709 2.33605,-1.98543 c 2.04575,-1.73869 3.25739,-1.90754 9.75,-1.35872 8.10139,0.68482 9.29578,-0.17601 4.16395,-3.00106 C 492.50459,355.87911 484.15836,349 485.23616,349 c 0.31316,0 4.48891,1.51532 9.27944,3.36737 l 8.71006,3.36737 3.85103,-2.52134 c 2.11807,-1.38674 3.61573,-2.90205 3.32815,-3.36737 C 510.11726,349.38071 507.64407,349 504.90886,349 c -5.40764,0 -9.99897,-1.65787 -13.90886,-5.02232 -1.375,-1.18318 -1.9723,-1.88214 -1.32734,-1.55324 3.53096,1.8006 11.91263,2.44606 19.46558,1.499 8.42387,-1.05627 12.73354,-2.66858 16.61176,-6.21473 3.7326,-3.41299 2.54924,-3.89404 -2.84943,-1.15832 -2.80469,1.42124 -5.31603,2.36748 -5.58076,2.10276 -0.67434,-0.67434 11.64129,-8.77442 14.68019,-9.65526 1.375,-0.39855 2.40968,-1.16959 2.29928,-1.71341 -0.11039,-0.54383 2.0429,-2.03962 4.78509,-3.324 3.14771,-1.47431 4.80011,-2.81914 4.4821,-3.64785 -0.40147,-1.04621 2.68662,-1.33664 15.21491,-1.43094 17.42677,-0.13118 21.59898,-0.68182 21.89286,-2.8894 0.10926,-0.82076 0.49866,-3.74229 0.86534,-6.49229 l 0.66668,-5 2.95415,5.83157 c 2.46132,4.85872 3.70487,6.16365 7.45427,7.82218 2.47507,1.09484 5.97702,2.23029 7.78212,2.52322 2.93645,0.47652 3.50208,0.15958 5.37226,-3.01014 1.82771,-3.09773 7.76778,-7.46332 8.77905,-6.45206 0.34831,0.34832 -2.05361,9.87172 -4.62849,18.35148 -1.17632,3.87394 -1.03809,4.49309 2.92283,13.09174 4.76751,10.34965 5.13397,14.27034 2.08389,22.29527 -2.58832,6.81001 -2.11766,9.55373 3.18489,18.56611 7.6936,13.07631 8.8313,20.01861 4.18546,25.53988 C 618.8782,413.1219 614.40732,415 608.15456,415 c -5.07877,0 -6.62928,-0.99147 -8.65456,-5.53417 -0.86583,-1.94206 -18.5869,-18.75797 -24.95388,-23.67929 -2.20749,-1.70627 -2.23076,-1.68108 -5.54146,6 C 567.17609,396.02894 561.28284,408.275 555.90855,419 544.85886,441.05088 543,446.43164 543,456.36578 c 0,5.03564 -0.5809,8.20275 -2.06793,11.27455 -1.95938,4.04753 -7.25522,9.63405 -10.00014,10.54903 -0.83653,0.27884 0.0578,2.19731 2.65309,5.69141 3.17067,4.26871 6.47121,6.8114 17.36041,13.37418 14.80254,8.92129 20.7089,13.68922 22.62406,18.26337 0.69506,1.66008 1.58707,6.38508 1.98225,10.5 0.39517,4.11493 2.01504,11.7234 3.59971,16.90773 4.17034,13.6435 4.24145,15.08663 1.53873,31.22764 C 577.51299,593.12832 573.71033,601 567.72126,601 c -2.16922,0 -5.28728,-6.42754 -6.93968,-14.3054 -1.51017,-7.19982 0.23495,-11.05224 5.22136,-11.5263 4.68338,-0.44526 6.30437,-1.93974 5.53981,-5.10748 -0.33993,-1.40845 -1.00681,-6.16082 -1.48195,-10.56082 -1.53302,-14.19655 -4.87557,-26.21817 -8.41338,-30.25907 -5.20894,-5.94969 -13.82949,-10.78337 -26.40425,-14.80529 -6.45874,-2.06576 -15.04393,-5.48387 -19.07819,-7.59579 C 512.13071,504.72793 508.22991,503 507.49654,503 c -0.73338,0 -2.36648,1.6875 -3.62911,3.75 -1.26262,2.0625 -4.90397,7.28274 -8.09188,11.60053 -3.18792,4.31778 -8.34021,12.82401 -11.44955,18.90272 -3.10933,6.07871 -8.48066,15.28098 -11.93627,20.44949 -6.61429,9.89289 -11.04193,20.07053 -13.88937,31.92689 -1.57955,6.57704 -1.58952,7.55183 -0.12871,12.57687 0.87096,2.99598 3.19439,7.55688 5.16319,10.13534 5.06941,6.6392 5.98729,9.7478 4.00825,13.57482 -0.87695,1.69584 -1.69539,3.04273 -1.81877,2.99309 -0.12338,-0.0496 -3.41298,-0.66929 -7.31023,-1.377 z M 330.177,496.09484 C 335.58298,492.27987 339.25513,485 335.77352,485 334.48138,485 320,498.93002 320,500.17295 c 0,1.19757 6.25022,-1.30701 10.177,-4.07811 z M 219.53212,405.55103 c 3.97451,-1.66066 5.03089,-5.24066 1.21788,-4.12733 -1.2375,0.36133 -5.29127,1.46005 -9.00837,2.44159 -3.7171,0.98155 -6.4546,2.0884 -6.08333,2.45967 1.21574,1.21574 10.32849,0.7074 13.87382,-0.77393 z M 937.27941,626.45195 C 931.54137,623.59256 924,616.0373 924,613.14807 c 0,-1.04314 0.65929,-3.76523 1.46508,-6.04909 2.00816,-5.69175 0.7682,-8.43772 -5.17649,-11.46359 C 914.92171,592.90362 912.50966,590.55202 908.35409,584 901.62021,573.3828 877,544.61263 877,547.3609 c 0,0.42752 3.76734,6.25872 8.37187,12.95821 10.48787,15.25961 12.0074,18.30034 14.01126,28.03785 2.08702,10.1416 2.03742,13.7275 -0.26912,19.45766 -1.0373,2.57696 -2.40536,6.59788 -3.04014,8.93538 -1.0255,3.77627 -1.48232,4.25 -4.09823,4.25 -1.80145,0 -4.13459,-1.06731 -6.01149,-2.75 -2.46479,-2.20973 -3.28495,-4.02699 -4.17472,-9.25 -1.0043,-5.89529 -0.90647,-6.95373 1.05163,-11.37712 1.18742,-2.68241 2.15894,-5.68317 2.15894,-6.66834 0,-0.98518 -2.05845,-4.19048 -4.57432,-7.12289 -2.51588,-2.93241 -6.35016,-9.03677 -8.52062,-13.56524 C 868.20308,562.54252 851.81901,540.54558 846.00987,535.5 841.41597,531.50993 838,525.80532 838,522.12365 c 0,-3.09643 0.76523,-4.25034 5.70322,-8.59997 17.20493,-15.15495 21.97482,-23.51004 17.88241,-31.32334 -0.77791,-1.48519 -6.88784,-7.82904 -13.57762,-14.09745 -13.56607,-12.71156 -20.08255,-21.47055 -23.03219,-30.95823 -2.65302,-8.53359 -2.46688,-13.07111 0.94947,-23.14466 1.58548,-4.675 2.8134,-8.57276 2.7287,-8.6617 -0.0847,-0.0889 -1.41893,0.0813 -2.96496,0.37824 -3.73152,0.71674 -5.63896,3.87502 -6.28531,10.40698 -0.29261,2.95706 -0.75907,6.47801 -1.03658,7.82433 -0.71563,3.47184 -1.93172,1.15068 -3.48115,-6.6445 C 814.19689,413.83651 813.28461,411 812.8587,411 811.57888,411 807,419.50917 807,421.88752 c 0,4.46829 5.95135,12.04774 11.83565,15.07351 3.67525,1.88985 1.91661,2.21566 -2.86099,0.53003 -6.63995,-2.34271 -10.381,-5.76699 -14.06657,-12.87546 -1.8511,-3.57027 -3.4979,-6.35913 -3.65955,-6.19747 -0.16166,0.16166 1.09175,4.21983 2.78535,9.01816 1.6936,4.79833 2.89892,9.25062 2.6785,9.89397 -0.59497,1.73655 -5.63631,-8.62271 -8.92043,-18.33026 l -2.8756,-8.5 0.43712,9 c 0.24042,4.95 0.74598,9.9 1.12346,11 l 0.68633,2 -1.65549,-2 c -0.91052,-1.1 -3.90903,-6.15867 -6.66335,-11.24149 C 780.38836,409.18991 779,407.58279 779,411.33565 c 0,5.80037 7.64707,25.24048 11.76728,29.91435 0.84848,0.9625 1.06465,1.75 0.48038,1.75 -1.69308,0 -10.19478,-9.97137 -12.69319,-14.88743 l -2.28084,-4.48795 -0.51271,13.43769 c -0.45562,11.94154 -0.87663,14.43975 -3.78133,22.43769 -2.26235,6.22929 -3.52087,11.89813 -4.088,18.41389 -0.91175,10.47512 -1.84225,12.42234 -4.27586,8.94787 -2.35295,-3.3593 -2.00904,-10.56093 1.06191,-22.23683 2.32818,-8.85184 2.54629,-10.89473 1.67119,-15.65273 l -1.00646,-5.4722 -2.72617,5.70997 c -1.49939,3.14048 -3.83947,10.96626 -5.20018,17.39062 -1.36072,6.42436 -2.89729,12.40487 -3.41462,13.29003 -1.69198,2.89505 -1.12079,-8.20383 0.9799,-19.04052 1.08972,-5.62145 1.83308,-10.36906 1.6519,-10.55023 -1.15453,-1.15454 -10.7982,23.37101 -13.4478,34.20013 l -0.9787,4 -0.10335,-4.79216 c -0.11691,-5.42072 2.19533,-17.62641 4.82104,-25.449 2.35464,-7.01502 0.0877,-5.17705 -3.85278,3.12371 -3.2298,6.8037 -5.07161,15.26575 -5.07161,23.30111 0,6.42193 -1.49406,7.02423 -2.32819,0.93856 -0.78958,-5.76056 0.8667,-15.67395 3.85503,-23.07373 1.32191,-3.27334 2.23988,-6.11511 2.03993,-6.31505 -1.03528,-1.03528 -8.54019,11.50081 -9.6097,16.05191 -0.674,2.86806 -1.85162,6.45215 -2.61694,7.96465 -4.51926,8.93141 -3.79761,-6.13497 0.77352,-16.14933 1.60657,-3.51963 2.765,-6.55535 2.5743,-6.74605 -0.93099,-0.931 -4.77636,4.89418 -7.4042,11.21629 C 721.13274,478.55748 711,493.20824 711,489.22356 c 0,-2.98565 10.45316,-32.55073 13.48957,-38.15308 1.9166,-3.53623 3.32992,-6.58433 3.14071,-6.77354 -0.18922,-0.18921 -1.1026,-0.0529 -2.02975,0.30286 -1.94177,0.74512 -4.80659,5.98861 -6.65837,12.18681 -1.44334,4.8311 -5.01515,9.21339 -7.50942,9.21339 -1.54316,0 -1.54116,-0.18559 0.0278,-2.58015 0.92982,-1.41909 4.16065,-9.85659 7.17961,-18.75 3.01896,-8.89342 6.35996,-17.09885 7.42443,-18.2343 2.40995,-2.57064 2.50181,-3.84597 0.1854,-2.57394 -0.9625,0.52854 -3.55,4.45879 -5.75,8.73388 -3.79539,7.37528 -6.62653,10.61132 -8.04373,9.19411 -0.94766,-0.94766 19.96267,-38.22288 25.07941,-44.70712 5.14111,-6.51511 12.15162,-11.55989 19.06059,-13.71604 14.02781,-4.37779 44.07061,-2.14804 65.09473,4.83127 9.11603,3.02622 13.05306,3.88529 15.60873,3.40584 1.87975,-0.35264 7.60388,-3.17696 12.72029,-6.27625 23.07164,-13.97578 44.66517,-15.84903 79.47998,-6.89492 21.30252,5.47885 33.83777,7.55368 45.68462,7.56172 14.81369,0.0101 22.24081,-2.15926 36.77288,-10.74068 l 4.4576,-2.63224 -2.9462,-0.78793 c -1.6204,-0.43337 -5.6513,-1.08081 -8.9576,-1.43877 -8.12583,-0.87976 -9.9195,-1.90052 -6.0113,-3.42097 3.5603,-1.3851 13.1074,-1.68212 19.75,-0.61444 4.3549,0.69998 4.75,0.59496 4.75,-1.26261 0,-3.35773 -3.5097,-4.4249 -12.1756,-3.7022 -4.3034,0.3589 -7.8244,0.4537 -7.8244,0.21067 0,-0.24303 3.0375,-1.45314 6.75,-2.68915 8.6872,-2.89223 16.4071,-2.92093 21.9456,-0.0816 4.3478,2.22898 6.5037,1.50794 3.7437,-1.25209 -1.6016,-1.60158 -2.056,-1.74316 -10.9393,-3.4084 -4.6139,-0.8649 -4.213,-0.94642 5.191,-1.0555 10.3032,-0.11952 12.5484,-0.91989 10.2726,-3.66202 -1.5423,-1.85845 -6.3182,-1.85573 -12.508,0.007 -2.6743,0.80483 -4.998,1.32757 -5.1639,1.16165 -0.166,-0.16592 2.0042,-1.55671 4.8226,-3.09066 4.5268,-2.46378 5.8683,-2.72927 11.505,-2.27681 4.8385,0.38839 6.3807,0.19724 6.3807,-0.79088 0,-6.65148 -8.8445,-9.21449 -20.8083,-6.0299 -6.1338,1.63273 -6.5851,0.45061 -1.2167,-3.18673 3.9985,-2.70923 13.445,-3.06557 22.0557,-0.83199 6.2786,1.62866 7.4544,1.20849 4.1393,-1.47918 -4.8949,-3.96844 -14.7591,-5.05355 -22.17,-2.43883 -5.1393,1.81327 -5,1.80726 -5,0.21561 0,-1.85215 4.9992,-4.53195 9.9234,-5.31935 2.3324,-0.37297 9.7163,-0.14679 16.4087,0.50261 6.6923,0.64941 13.9679,1.33612 16.1679,1.52602 l 4,0.34528 -3,-1.33998 c -1.65,-0.73699 -4.4359,-1.36028 -6.191,-1.38509 -4.0063,-0.0566 -5.0522,-1.57698 -2.1524,-3.12891 1.4534,-0.77781 4.9802,-0.9969 10.278,-0.63846 7.866,0.5322 7.979,0.50823 4.569,-0.96942 -2.2415,-0.97135 -5.3754,-1.35928 -8.732,-1.08093 -4.3979,0.36471 -5.0501,0.2107 -4.0764,-0.96254 3.4419,-4.14722 10.5293,-5.1059 19.5548,-2.64505 1.2375,0.33741 2.25,0.18322 2.25,-0.34264 0,-1.39309 -4.6263,-3.27715 -8.0471,-3.27715 -3.7992,0 -3.7799,-1.41481 0.041,-2.99747 2.0817,-0.86227 5.5294,-1.0289 11.3158,-0.54689 6.7134,0.55922 8.5573,0.40955 9.5398,-0.77435 3.4526,-4.16003 24.0425,-4.54055 36.3815,-0.67238 7.7308,2.42355 7.4709,2.43093 5.174,-0.14693 -2.3431,-2.62967 -8.0977,-5.16994 -9.6035,-4.23928 -0.6723,0.41551 -0.829,0.23078 -0.397,-0.46819 1.2884,-2.08473 5.3089,-1.21211 10.495,2.27787 2.8053,1.8878 5.1005,3.09881 5.1005,2.69113 0,-0.40769 0.6779,-1.61476 1.5064,-2.68238 1.4398,-1.85544 1.4875,-1.82329 1.0808,0.72829 -0.234,1.46818 0.1638,3.47537 0.8841,4.46042 1.1045,1.5105 1.7108,1.60822 3.8711,0.6239 2.069,-0.94267 2.4636,-0.9118 2.0521,0.16053 -0.8942,2.33041 2.6541,2.65784 7.1674,0.66139 2.4049,-1.06381 6.689,-4.10092 9.5201,-6.74914 l 5.1476,-4.81493 -0.7281,12.62266 -0.728,12.62265 7.5405,16.37155 c 4.1473,9.00435 10.4553,22.35972 14.0177,29.6786 3.5624,7.31888 7.2677,16.22769 8.2339,19.79735 l 1.7569,6.4903 -2.8438,5.94978 c -3.6793,7.69805 -6.2935,10.07919 -11.6664,10.62615 -6.1881,0.62994 -10.2594,-2.21009 -13.6383,-9.51359 -1.9984,-4.31961 -4.7902,-7.71976 -11.0497,-13.45755 -13.5059,-12.38013 -21.4428,-16.66698 -28.1363,-15.19686 -4.1736,0.91669 -13.7717,14.91923 -20.0768,29.28975 -11.1051,25.31115 -12.1175,28.26915 -14.5853,42.61884 -2.8239,16.41938 -5.693,23.56976 -11.903,29.66442 -2.4326,2.38743 -4.4229,4.75072 -4.4229,5.25176 0,2.76479 8.1513,13.48031 17.247,22.6726 18.2347,18.42822 19.2824,25.8366 5.7424,40.60524 -2.07,2.25788 -6.6822,8.60265 -10.2493,14.09949 -6.4567,9.94973 -6.5452,10.03365 -19.8628,18.83308 -13.8829,9.17291 -20.3211,12.27334 -23.1955,11.17032 -2.1467,-0.82375 -2.2545,-10.35371 -0.183,-16.16985 0.7761,-2.17894 1.2755,-4.09735 1.1097,-4.26313 -0.1658,-0.16577 -1.9348,0.38107 -3.9312,1.21521 -1.9964,0.83414 -7.5421,2.42886 -12.3239,3.54383 -4.7818,1.11497 -12.33,3.61914 -16.7738,5.56483 -5.9718,2.61471 -10.4276,3.78449 -17.0796,4.48393 -4.95,0.52047 -14.175,2.23756 -20.5,3.81575 l -11.5,2.86943 -0.34674,-2.63407 c -0.5734,-4.35591 1.83025,-12.96102 4.50994,-16.14565 1.97435,-2.34637 3.32589,-2.98841 6.29083,-2.98841 2.12359,0 4.81998,0.8008 6.16111,1.82978 4.16553,3.19601 5.55167,3.21645 9.42412,0.13902 3.89044,-3.09173 4.88924,-3.35306 18.81794,-4.92373 11.1233,-1.25432 22.1078,-4.74284 25.803,-8.1947 3.8992,-3.64237 3.6803,-7.18057 -1.1275,-18.23148 -2.182,-5.01539 -5.0973,-13.95536 -6.4785,-19.8666 -2.6837,-11.48599 -5.0332,-17.06922 -8.5039,-20.20806 -1.9226,-1.73874 -4.7918,-2.09537 -25.8564,-3.21378 -35.35649,-1.87723 -44.08278,-3.92495 -69.10525,-16.21628 C 926.36241,477.30138 920.9106,475 919.97351,475 c -5.11772,0 -9.27719,7.28527 -13.54571,23.72515 -1.39589,5.37617 -4.0514,14.27485 -5.90115,19.77485 -1.84975,5.5 -3.6761,12.58184 -4.05856,15.73742 -1.253,10.33801 -0.63071,11.56186 13.21797,25.99578 13.89675,14.48402 22.67579,25.72734 25.99649,33.29374 3.17558,7.23571 7.1319,15.46188 9.36544,19.47306 2.40759,4.32374 2.61518,12.19398 0.38058,14.42857 -2.03415,2.03415 -2.1305,2.0226 -8.14916,-0.97662 z m 134.51149,-59.01803 c 1.2297,-0.86135 3.1067,-3.27303 4.171,-5.35929 1.0644,-2.08627 5.7595,-7.26518 10.4336,-11.50869 18.9185,-17.17552 16.9622,-27.09763 -7.0081,-35.54412 -4.8881,-1.72243 -10.3756,-4.00697 -12.1946,-5.07676 -1.8189,-1.06978 -3.5695,-1.94506 -3.8901,-1.94506 -0.3207,0 -0.2335,8.6625 0.1938,19.25 1.2722,31.52219 1.3024,30.94442 -1.8636,35.72848 -2.3202,3.50614 -2.479,4.11437 -0.9573,3.66612 1.0034,-0.29557 3.1744,0.0769 4.8244,0.82778 3.9025,1.77586 3.6988,1.7771 6.2909,-0.0385 z m 38.3483,-257.46719 c -2.4459,-2.03761 -10.9566,-2.75629 -14.8074,-1.25038 -2.1927,0.85749 6.8544,3.01355 13.1682,3.13816 l 4,0.079 z m 562.4025,318.30383 c -1.0771,-0.2736 -2.9782,-1.16571 -4.2248,-1.98247 -2.1877,-1.43343 -2.2099,-1.59435 -0.6396,-4.631 0.8948,-1.73029 3.231,-5.56197 5.1916,-8.51486 l 3.5647,-5.36887 -0.026,-16.13668 c -0.037,-22.74139 -2.9631,-32.21907 -14.8684,-48.15995 -2.8849,-3.86279 -7.8015,-11.15577 -10.9259,-16.20661 -3.1243,-5.05084 -7.5779,-11.42322 -9.8968,-14.16083 -16.0401,-18.93604 -19.0512,-22.15525 -21.2358,-22.70353 -3.3707,-0.84599 -8.9236,3.73911 -16.8969,13.9518 -10.6721,13.66974 -11.0836,14.8266 -11.0836,31.16328 0,13.74479 -0.063,14.14849 -3.1915,20.50393 -1.982,4.026 -6.7195,10.39316 -12.5,16.79987 -19.2139,21.29517 -22.0838,24.84265 -25.4053,31.40325 -3.7461,7.39944 -6.2455,9.56744 -12.0474,10.45011 -2.1207,0.32263 -4.8432,1.48192 -6.05,2.57621 -1.8005,1.6326 -2.9986,1.86899 -6.6768,1.31741 -5.124,-0.7684 -10.9517,-4.29314 -11.4597,-6.93119 -0.7241,-3.75984 6.5124,-7.64043 14.2478,-7.64043 1.8466,0 2.9838,-0.87938 4.2029,-3.25 0.9193,-1.7875 4.9231,-6.625 8.8974,-10.75 3.9742,-4.125 8.4619,-9.525 9.9726,-12 1.5106,-2.475 4.0024,-5.85 5.5372,-7.5 4.1052,-4.41322 4.961,-9.17192 4.9672,-27.61901 0.01,-18.97493 1.658,-30.64194 5.6365,-39.81557 1.4588,-3.36357 2.3858,-6.38209 2.06,-6.70784 -0.3257,-0.32574 -3.5751,0.80358 -7.2208,2.5096 -3.6457,1.70602 -9.5558,3.61163 -13.1336,4.23467 -10.4873,1.8263 -35.2937,0.63277 -53.3365,-2.56624 -17.3097,-3.06902 -24.8757,-3.02449 -32.0612,0.18868 -2.6791,1.19803 -9.4105,6.73251 -16.98,13.96088 -6.8977,6.58679 -16.1227,14.29629 -20.5,17.13223 -5.5324,3.58427 -11.9639,9.35218 -21.0959,18.91942 -20.4151,21.3881 -23.6602,25.83155 -26.3509,36.08231 -1.0523,4.00909 -1.5852,4.52171 -7.4242,7.14149 -6.356,2.85171 -7.5878,4.24758 -7.5878,8.59811 0,6.26633 -12.4041,8.04014 -24.3809,3.48654 l -2.807,-1.06721 3.2907,-3.73903 3.2907,-3.73903 -6.9467,-0.5 c -5.7913,-0.41683 -6.9006,-0.77936 -6.6691,-2.17952 0.4518,-2.73307 6.0924,-15.92445 9.1166,-21.32048 1.5412,-2.75 4.0443,-8.12377 5.5624,-11.94172 1.5182,-3.81795 3.9136,-8.76795 5.3232,-11 1.4096,-2.23205 3.5429,-6.55785 4.7406,-9.61289 1.1978,-3.05503 4.0456,-8.65162 6.3286,-12.43686 2.283,-3.78524 4.1627,-7.81067 4.1771,-8.94539 0.076,-5.957 5.0289,-12.26069 19.071,-24.27074 C 1397.895,483.4913 1411,466.45079 1411,460.3106 c 0,-1.30616 -0.675,-3.99034 -1.5,-5.96484 -2.7899,-6.67706 -1.5898,-19.20655 3.2418,-33.84576 1.5278,-4.62922 2.6112,-10.10673 2.5711,-13 -0.079,-5.73862 -7.147,-34.07582 -10.2464,-41.08264 l -2.08,-4.70222 -8.0102,0.54903 c -6.6468,0.45558 -8.8156,1.06315 -12.7432,3.56981 -5.8723,3.74784 -27.8855,9.64141 -32.6637,8.74502 -1.7632,-0.33079 -5.1384,-2.02261 -7.5004,-3.75961 -4.0921,-3.00942 -4.2686,-3.35039 -3.7473,-7.23879 0.3464,-2.5835 0.034,-4.99781 -0.8519,-6.5806 -2.6618,-4.75676 -1.8593,-7.90811 3.283,-12.89286 2.614,-2.53393 7.9015,-6.85714 11.75,-9.60714 6.5515,-4.68151 7.3157,-5.64128 11.9972,-15.06764 6.1768,-12.43717 8.3913,-15.52035 12.8861,-17.94098 l 3.529,-1.90049 -0.6017,-12.57986 c -0.5287,-11.05339 -0.3938,-12.78779 1.1119,-14.29346 2.5483,-2.54826 4.9292,-0.73575 7.5653,5.75921 1.6361,4.03108 2.9,5.70865 4.6279,6.14231 3.4452,0.8647 5.2444,-0.15162 5.8886,-3.32627 1.2731,-6.2751 2.0748,-7.79879 4.2684,-8.11308 1.8134,-0.25981 2.5962,0.52155 4.147,4.13937 l 1.9116,4.45964 5.4769,-1.52441 c 3.1279,-0.87061 6.6473,-1.23065 8.2058,-0.83948 2.5939,0.65103 2.6363,0.75514 0.8561,2.10323 -1.6771,1.27002 -1.1672,1.42163 4.8771,1.45011 5.7506,0.0271 6.7497,0.2909 6.7479,1.7818 -0,1.5169 0.8973,1.71917 6.75,1.51857 l 6.7521,-0.23142 -4.4873,2.04121 c -6.1834,2.81273 -8.3174,4.84961 -6.8867,6.57343 1.6686,2.01054 3.5717,1.66793 9.4651,-1.70391 3.9972,-2.28699 6.7588,-3.10173 11.0159,-3.25 7.0354,-0.24504 8.0291,1.40422 2.73,4.53078 l -3.821,2.25447 2.992,0.52167 2.992,0.52168 -2.4725,1.73676 -2.4725,1.73676 4.4725,0.0153 c 6.8629,0.0235 8.0165,1.48474 2.3056,2.92049 -8.2189,2.06628 -14.0147,6.78258 -11.4665,9.33075 1.2578,1.25786 4.5353,0.10763 7.9997,-2.80753 4.8549,-4.08512 6.9406,-4.40768 15.1009,-2.33536 4.0963,1.04028 7.8801,2.32367 8.4085,2.85199 1.0528,1.05285 -8.5536,5.99767 -11.6847,6.01458 -0.995,0.005 -1.5309,0.45977 -1.191,1.00977 0.3534,0.57179 5.4866,1 11.9876,1 9.0026,0 11.6967,0.32714 12.941,1.57143 2.1084,2.10848 1.9791,5.20606 -0.4135,9.89891 -1.0917,2.14128 -1.8052,4.07289 -1.5856,4.29247 0.8446,0.84462 4.3792,-1.82325 7.0436,-5.31639 1.9495,-2.55594 3.014,-3.27625 3.553,-2.40412 1.2269,1.98516 -0.9741,6.81091 -4.802,10.52856 -4.2083,4.08701 -2.6242,4.43972 3.5882,0.79898 l 4.488,-2.63016 -2.6905,3.52745 c -3.2188,4.2201 -4.8834,9.42156 -3.6948,11.54546 0.6966,1.24468 1.1422,0.98507 2.3883,-1.39118 2.0425,-3.89521 8.5296,-10.05132 11.9467,-11.33712 4.8483,-1.82434 3.28,1.58232 -4.3518,9.45302 -6.6524,6.86059 -7.8316,9.46269 -4.2882,9.46269 0.8206,0 2.9315,-1.53557 4.691,-3.41238 3.3948,-3.6212 9.3676,-7.57766 11.449,-7.58388 2.3514,-0.007 1.2486,2.11748 -3.9555,7.62007 -4.1831,4.42295 -4.9197,5.68495 -3.75,6.42483 2.1778,1.37767 3.2184,1.18491 8.3595,-1.54864 2.586,-1.375 4.8516,-2.5 5.0346,-2.5 0.183,0 -0.814,2.45073 -2.2156,5.44607 -2.6456,5.65384 -3.7555,6.44774 -11.9308,8.53433 -2.3143,0.59067 -4.5034,1.55234 -4.8648,2.13704 -1.0833,1.75285 6.4496,8.5702 13.6515,12.35467 3.7081,1.94857 9.9118,4.25867 13.7858,5.13354 6.8851,1.55485 7.2871,1.53287 17.8396,-0.97529 15.7462,-3.74264 32.818,-5.74163 49.2957,-5.77221 21.4444,-0.0398 31.5463,3.32443 40.6489,13.53727 7.2899,8.17905 8.171,8.4721 21.0253,6.99258 40.2859,-4.63688 52.0729,-1.95942 64.4095,14.63076 6.8323,9.18807 11.624,11.29294 19.4163,8.52904 1.1,-0.39017 -0.1412,1.23946 -2.7581,3.6214 -2.617,2.38194 -4.7545,4.63108 -4.75,4.99809 0.021,1.75818 9.2063,4.07831 13.7582,3.47538 6.0262,-0.79819 4.0168,0.70047 -4.0001,2.98345 -3.1625,0.90059 -5.75,2.10157 -5.75,2.66885 0,0.56728 4.8862,8.72048 10.8582,18.11823 11.8101,18.58466 14.388,23.33191 18.6618,34.36697 2.0026,5.17066 2.5096,7.5902 1.7497,8.35011 -0.6838,0.68385 -0.9023,4.73243 -0.6054,11.21982 0.4324,9.44867 0.3534,10.01173 -1.1439,8.1499 -0.8847,-1.1 -2.2876,-4.475 -3.1175,-7.5 -2.9672,-10.81448 -6.7167,-20.65072 -11.5311,-30.25 -2.6895,-5.3625 -5.0532,-9.75 -5.2527,-9.75 -0.444,0 2.8379,13.81698 3.8598,16.25 0.5292,1.25995 0.2692,1.75 -0.9286,1.75 -1.5195,0 -1.5288,0.19263 -0.107,2.22251 0.8562,1.22237 1.5567,3.25893 1.5567,4.52568 0,2.22854 -0.096,2.25374 -2.9503,0.77749 -1.6227,-0.83912 -3.2069,-1.52568 -3.5204,-1.52568 -0.9566,0 3.5164,8.18003 7.6077,13.91279 2.1247,2.97704 3.863,5.94231 3.863,6.58949 0,1.42586 -4.2842,3.49772 -7.2326,3.49772 -1.1762,0 -3.1571,-0.95696 -4.4021,-2.12657 l -2.2637,-2.12657 -0.4901,2.37657 c -0.2696,1.30711 -0.7053,5.07657 -0.9682,8.37657 -0.6135,7.69892 -3.9857,18.41699 -6.7168,21.34855 -3.3319,3.57629 -3.329,1.89171 0.01,-4.71884 2.8865,-5.7181 3.0642,-6.73121 3.0433,-17.35119 -0.019,-9.83484 -0.2826,-11.59853 -2.056,-13.77852 l -2.0338,-2.5 0.806,4.5 c 0.4433,2.475 0.806,9.45 0.806,15.5 0,9.793 -0.2567,11.41287 -2.3394,14.76265 -2.299,3.69766 -5.8045,6.42679 -6.8772,5.35405 -0.3,-0.29994 0.2449,-4.61385 1.2107,-9.58647 2.3721,-12.21218 1.7848,-23.9825 -1.4871,-29.80399 -1.3064,-2.32443 -2.6332,-4.22624 -2.9483,-4.22624 -0.3152,0 -0.4106,2.0438 -0.2119,4.54178 0.1987,2.49797 -0.1698,5.82381 -0.8188,7.39074 -1.0078,2.43284 -0.8559,3.48445 1.0395,7.19983 3.0049,5.88999 0.7537,3.80527 -7.0423,-6.52152 -3.5417,-4.69144 -6.5761,-8.39329 -6.743,-8.22635 -0.6924,0.69236 3.0398,9.46357 7.6729,18.03242 4.8531,8.97592 7.4208,17.5831 5.2453,17.5831 -1.7944,0 -4.819,-4.63638 -7.3141,-11.2116 L 1722.5,533.5 l -0.2964,7.37927 c -0.163,4.05861 0.3995,10.74424 1.25,14.85697 0.8505,4.11273 1.5281,8.44205 1.5058,9.62072 -0.036,1.92386 -0.3322,1.80227 -2.8912,-1.18887 -3.9415,-4.60697 -5.8385,-12.28853 -7.0721,-28.63726 -1.6444,-21.792 -4.5255,-31.4327 -11.029,-36.90504 -3.2604,-2.74344 -7.9671,-3.54339 -7.9671,-1.35408 0,2.59099 6.2209,25.37897 8.0895,29.63283 2.2954,5.22547 1.909,6.31794 -0.8498,2.40304 -6.4082,-9.09347 -9.0836,-18.55145 -12.2506,-43.30758 -1.2312,-9.625 -2.6089,-18.175 -3.0614,-19 -0.4526,-0.825 -0.6182,7.95 -0.3682,19.5 0.4217,19.47809 0.343,20.75918 -1.0851,17.67707 -1.8429,-3.97732 -3.3954,-18.71418 -3.4953,-33.17707 -0.04,-5.775 -0.6512,-13.425 -1.3584,-17 l -1.286,-6.5 -0.7028,4 c -0.3866,2.2 -1.1369,6.43755 -1.6674,9.41678 -0.5305,2.97923 -0.9645,9.08743 -0.9645,13.57378 0,5.8068 -0.7203,10.56349 -2.5,16.50944 -3.9897,13.32953 -3.5944,15.17719 7.0601,33 l 4.4836,7.5 -0.6039,12 c -0.495,9.83754 -0.1267,15.514 2.0438,31.5 1.4561,10.725 2.8793,21.3 3.1626,23.5 0.396,3.07564 -0.087,5.12127 -2.0917,8.85211 -1.9684,3.66385 -2.4537,5.66827 -1.9816,8.18482 1.6853,8.98348 -4.9803,15.03269 -14.0312,12.73363 z m -308.3813,-51.27037 c 1.4633,-2.81269 5.7432,-8.12588 9.511,-11.80709 4.7845,-4.67456 8.3299,-9.40737 11.756,-15.6931 7.0203,-12.87999 12.4567,-20.24403 19.3931,-26.26933 5.1651,-4.48669 16.6868,-19.0567 15.7838,-19.9597 -0.1624,-0.16238 -2.2773,0.58032 -4.6998,1.65043 -2.4225,1.07011 -7.6489,2.68253 -11.6144,3.58316 -6.8387,1.5532 -15.3627,6.08837 -23.6373,12.57614 -3.1013,2.43164 -16.8897,29.85927 -19.148,38.08892 -0.7047,2.5683 -2.6739,6.40245 -4.3759,8.52034 -2.684,3.3399 -3.1421,4.79385 -3.453,10.96044 l -0.3585,7.10972 4.0913,-1.82297 c 3.1321,-1.3956 4.715,-3.0219 6.7517,-6.93696 z M 522,327.07983 c 2.61836,-2.13463 10.99926,-6.41565 11.52415,-5.88661 0.1674,0.16873 -2.91955,2.02082 -6.85989,4.11577 -3.94034,2.09494 -6.03926,2.89182 -4.66426,1.77084 z"
       id="path1" />
  </g>
</svg>
