
<svg
   version="1.1"
   id="svg1"
   width="16"
   height="16"
   viewBox="0 0 400 400"
   xmlns:xlink="http://www.w3.org/1999/xlink"
   xmlns="http://www.w3.org/2000/svg">
  <defs
     id="defs1" />
 
  <g id="g1">
    <path
       style="fill:#000000"
       d="m 194.5,398.56638 c 1.65,-0.76344 6.375,-2.15936 10.5,-3.10203 9.27605,-2.11984 24.23218,-7.5759 33.45111,-12.20311 48.71261,-24.4501 84.80387,-71.14182 100.09158,-129.48975 6.73561,-25.70748 8.59046,-59.83783 4.4823,-82.47696 C 337.39266,140.2561 323.27834,112.88149 302.91091,93.493602 293.09984,84.154381 286.09771,79.321901 274.50482,73.889288 260.69954,67.419914 251.9713,65.628752 234.5,65.679715 c -13.31158,0.03883 -16.01305,0.346662 -24,2.734789 -36.18614,10.819797 -65.14058,40.757296 -77.93175,80.577686 -13.29804,41.39831 -10.13626,84.03344 8.95912,120.81001 7.43298,14.31548 15.35826,24.93488 26.44346,35.4327 9.06573,8.58534 9.38653,9.03297 7.5,10.46485 -2.95494,2.24282 -24.82619,1.18183 -33.10505,-1.60596 C 117.76272,305.80908 99.059385,289.81283 85.384551,265.35994 66.001336,230.69952 63.708081,183.24022 79.133819,136 88.904056,106.07935 104.0257,81.594478 126.37958,59.5 140.93219,45.116256 152.39398,36.802296 168.5,28.947392 207.83415,9.7641333 248.85294,7.9599001 289.47792,23.626113 310.92773,31.8978 330.34735,45.173906 348,63.634361 c 13.82572,14.458403 23.56717,28.596152 32.88209,47.721709 16.40171,33.6763 21.82435,68.46886 17.63417,113.14393 -2.11721,22.57343 -7.49902,41.34678 -18.06038,63 -25.81814,52.93308 -74.03437,92.3208 -131.13801,107.12629 -10.54625,2.73436 -34.14473,5.3059 -48.81787,5.3197 -8.4485,0.008 -8.81617,-0.0766 -6,-1.37961 z m -59,-15.00764 C 103.55667,376.69556 76.145002,361.28946 52.407219,336.85836 33.037177,316.92257 18.144622,291.9337 8.9355299,263.91532 1.9604526,242.69387 -0.50589141,223.01626 0.29784693,195 1.2128097,163.10674 3.8226372,149.23869 13.411277,125.3181 32.40402,77.937296 70.109562,38.350322 116.65248,16.925363 141.36675,5.5487218 167.88586,-0.13715352 195.0519,0.11600135 201.89835,0.17980209 206.6,0.42799877 205.5,0.66754953 204.4,0.90710028 202.6,1.5144107 201.5,2.0171281 200.4,2.5198456 196.575,3.6598839 193,4.5505464 133.11727,19.469514 82.542705,71.841958 63.16603,139 47.132886,194.56962 52.731185,245.92829 79.13985,285.54346 c 6.881793,10.32325 21.04659,24.95303 30.46183,31.46178 39.13489,27.05393 88.23389,22.51802 123.28827,-11.38973 27.51944,-26.61927 42.14866,-63.06326 42.09211,-104.85893 -0.0573,-42.385 -15.6266,-80.46707 -43.59639,-106.635827 -10.00608,-9.36177 -10.32565,-11.027094 -2.16705,-11.292673 20.99912,-0.683563 35.92068,3.423768 51.96852,14.304926 20.48004,13.886394 36.77464,37.750334 44.26003,64.820144 4.01055,14.50356 4.97395,22.59705 4.886,41.04685 -0.18842,39.5226 -11.40825,76.21831 -33.20756,108.60903 -25.77156,38.29293 -60.1207,62.48983 -102.12561,71.94133 -5.31218,1.19529 -13.48005,1.78737 -28,2.02968 -18.55918,0.30971 -21.54142,0.11835 -31.5,-2.0213 z"
       id="path1" />
  </g>
</svg>
